<?xml version="1.0" encoding="utf-8"?>
<svg xmlns="http://www.w3.org/2000/svg" style="margin: auto; background: none; display: block; shape-rendering: auto;" width="280" height="250" preserveAspectRatio="xMidYMid">
<style type="text/css">
  text {
    text-anchor: middle; font-size: 73px; opacity: 0;
  }
</style>
<g style="transform-origin:140px 125px;transform:scale(1)">
<g transform="translate(140,125)">
  <g transform="translate(0,0)"><g class="path" style="transform: scale(0.91); transform-origin: -58.695px 0.946543px; animation: 1s linear -0.565714s infinite normal forwards running breath-c9f1716b-b647-4e4e-8162-7e5625712c20;"><path d="M15.66-13.29L15.66-13.29L15.66-13.29Q13.65-14.82 12.12-17.96L12.12-17.96L12.12-17.96Q10.58-21.10 10.58-25.04L10.58-25.04L10.58-25.04Q10.58-28.98 11.83-32.34L11.83-32.34L11.83-32.34Q13.07-35.70 15.51-38.43L15.51-38.43L15.51-38.43Q17.96-41.17 22.05-42.81L22.05-42.81L22.05-42.81Q26.13-44.46 30.73-44.46L30.73-44.46L30.73-44.46Q35.33-44.46 39.05-43.76L39.05-43.76L39.05-43.76Q42.78-43.07 44.89-42.30L44.89-42.30L44.89-42.30Q47.01-41.54 48.65-40.84L48.65-40.84L48.65-40.84Q50.30-40.15 51.32-39.75L51.32-39.75L51.32-39.75Q52.34-39.35 52.56-39.27L52.56-39.27L52.56-39.27Q52.78-39.20 53.73-38.84L53.73-38.84L53.73-38.84Q54.68-38.47 55.01-38.40L55.01-38.40L55.01-38.40Q55.33-38.32 56.17-38.03L56.17-38.03L56.17-38.03Q57.01-37.74 57.49-37.67L57.49-37.67L57.49-37.67Q57.96-37.59 58.76-37.41L58.76-37.41L58.76-37.41Q59.57-37.23 60.15-37.19L60.15-37.19L60.15-37.19Q60.74-37.16 61.54-37.08L61.54-37.08L61.54-37.08Q62.34-37.01 63.07-37.01L63.07-37.01L63.07-37.01Q66.65-37.01 69.31-38.22L69.31-38.22L69.31-38.22Q71.98-39.42 73.18-40.88L73.18-40.88L73.18-40.88Q74.39-42.34 75.12-44.24L75.12-44.24L75.12-44.24Q75.99-46.57 75.99-48.47L75.99-48.47L77.60-48.47L77.60-48.47Q77.60-46.72 76.69-44.20L76.69-44.20L76.69-44.20Q75.77-41.68 74.42-39.97L74.42-39.97L74.42-39.97Q73.07-38.25 70.08-36.86L70.08-36.86L70.08-36.86Q67.09-35.48 62.96-35.48L62.96-35.48L62.96-35.48Q58.84-35.48 54.68-36.79L54.68-36.79L54.68-36.79Q49.71-29.78 44.24-8.54L44.24-8.54L44.24-8.54Q41.54 2.12 36.46 6.97L36.46 6.97L36.46 6.97Q31.39 11.83 21.79 11.83L21.79 11.83L21.79 11.83Q12.19 11.83 7.45 5.99L7.45 5.99L7.45 5.99Q3.28 0.80 3.28-6.06L3.28-6.06L3.28-6.06Q3.28-6.93 3.36-7.81L3.36-7.81L5.04-7.81L5.04-6.79L5.04-6.79Q5.04-1.75 7.74 3.07L7.74 3.07L7.74 3.07Q8.91 5.11 10.55 6.61L10.55 6.61L10.55 6.61Q12.19 8.10 14.96 9.13L14.96 9.13L14.96 9.13Q17.74 10.15 21.17 10.15L21.17 10.15L21.17 10.15Q26.86 10.15 30.19 5.55L30.19 5.55L30.19 5.55Q33.51 0.95 36.61-12.23L36.61-12.23L36.61-12.23Q39.71-25.40 42.96-31.06L42.96-31.06L42.96-31.06Q46.21-36.72 52.41-37.59L52.41-37.59L52.41-37.59Q50.52-38.32 48.40-39.24L48.40-39.24L48.40-39.24Q46.28-40.15 44.35-40.84L44.35-40.84L44.35-40.84Q42.41-41.54 38.80-42.23L38.80-42.23L38.80-42.23Q35.19-42.92 30.73-42.92L30.73-42.92L30.73-42.92Q26.28-42.92 22.45-41.32L22.45-41.32L22.45-41.32Q18.61-39.71 16.50-37.08L16.50-37.08L16.50-37.08Q12.26-31.97 12.26-25.26L12.26-25.26L12.26-25.26Q12.26-21.46 13.65-18.58L13.65-18.58L13.65-18.58Q15.04-15.69 17.01-14.31L17.01-14.31L17.01-14.31Q21.02-11.61 24.31-11.24L24.31-11.24L25.70-11.10L25.26-9.49L25.26-9.49Q23.43-9.49 20.55-10.62L20.55-10.62L20.55-10.62Q17.67-11.75 15.66-13.29" fill="#290908" stroke="none" stroke-width="none" transform="translate(-99.13499450683594,19.266543055943085)" style="fill: rgb(41, 9, 8);"></path></g><g class="path" style="transform: scale(0.91); transform-origin: -21.975px 5.39654px; animation: 1s linear -0.471429s infinite normal forwards running breath-c9f1716b-b647-4e4e-8162-7e5625712c20;"><path d="M87.16 0.66L87.16 0.66L87.16 0.66Q80.74 0.66 80.15-4.96L80.15-4.96L80.15-4.96Q76.94 0.66 72.05 0.66L72.05 0.66L72.05 0.66Q67.16 0.66 64.28-2.30L64.28-2.30L64.28-2.30Q61.39-5.26 61.39-10.58L61.39-10.58L61.39-10.58Q61.39-18.91 65.48-23.65L65.48-23.65L65.48-23.65Q69.57-28.40 76.07-28.40L76.07-28.40L76.07-28.40Q81.39-28.40 83.15-23.36L83.15-23.36L83.15-23.36Q83.51-25.55 83.95-27.74L83.95-27.74L83.95-27.74Q89.35-27.74 91.98-28.18L91.98-28.18L92.93-28.40L87.89-0.80L87.89-0.80Q90.08-1.02 91.54-2.85L91.54-2.85L92.64-1.97L92.64-1.97Q90.45 0.66 87.16 0.66zM69.64-6.86L69.64-6.86Q69.64-3.58 70.48-2.30L70.48-2.30L70.48-2.30Q71.32-1.02 73.07-1.02L73.07-1.02L73.07-1.02Q74.82-1.02 76.65-2.92L76.65-2.92L76.65-2.92Q79.06-5.40 80.52-9.20L80.52-9.20L80.52-9.20Q80.74-10.15 81.36-13.76L81.36-13.76L81.36-13.76Q81.98-17.37 82.42-19.71L82.42-19.71L82.42-19.71Q82.20-22.48 80.88-24.53L80.88-24.53L80.88-24.53Q79.57-26.57 77.60-26.57L77.60-26.57L77.60-26.57Q74.02-26.57 71.83-20.18L71.83-20.18L71.83-20.18Q69.64-13.80 69.64-6.86L69.64-6.86" fill="#290908" stroke="none" stroke-width="none" transform="translate(-99.13499450683594,19.266543055943085)" style="fill: rgb(73, 18, 18);"></path></g><g class="path" style="transform: scale(0.91); transform-origin: 12.48px 10.2115px; animation: 1s linear -0.377143s infinite normal forwards running breath-c9f1716b-b647-4e4e-8162-7e5625712c20;"><path d="M111.32 0.58L111.32 0.58L111.32 0.58Q107.97 0.58 106.00-0.95L106.00-0.95L103.81 10.80L95.12 10.80L101.98-27.45L101.98-27.45Q99.79-27.23 98.33-25.40L98.33-25.40L97.24-26.28L97.24-26.28Q99.43-28.91 102.67-28.91L102.67-28.91L102.67-28.91Q105.92-28.91 107.75-27.34L107.75-27.34L107.75-27.34Q109.57-25.77 109.72-22.92L109.72-22.92L109.72-22.92Q112.93-28.40 117.89-28.40L117.89-28.40L117.89-28.40Q122.86-28.40 125.49-25.59L125.49-25.59L125.49-25.59Q128.11-22.78 128.11-17.88L128.11-17.88L128.11-17.88Q128.11-9.27 123.44-4.34L123.44-4.34L123.44-4.34Q118.77 0.58 111.32 0.58zM109.13-18.18L106.51-3.87L106.51-3.87Q107.75-1.09 111.22-1.09L111.22-1.09L111.22-1.09Q114.68-1.09 117.27-6.93L117.27-6.93L117.27-6.93Q119.87-12.77 119.87-20.88L119.87-20.88L119.87-20.88Q119.87-24.24 119.17-25.48L119.17-25.48L119.17-25.48Q118.48-26.72 116.65-26.72L116.65-26.72L116.65-26.72Q114.83-26.72 112.89-24.53L112.89-24.53L112.89-24.53Q110.96-22.34 110.08-20.40L110.08-20.40L110.08-20.40Q109.21-18.47 109.21-18.18L109.21-18.18L109.13-18.18" fill="#290908" stroke="none" stroke-width="none" transform="translate(-99.13499450683594,19.266543055943085)" style="fill: rgb(131, 26, 25);"></path></g><g class="path" style="transform: scale(0.91); transform-origin: 45.115px 5.39654px; animation: 1s linear -0.282857s infinite normal forwards running breath-c9f1716b-b647-4e4e-8162-7e5625712c20;"><path d="M147.46-28.40L147.46-28.40L147.46-28.40Q156.73-28.40 156.73-21.02L156.73-21.02L156.73-21.02Q156.73-16.43 152.39-14.05L152.39-14.05L152.39-14.05Q148.04-11.68 140.01-11.61L140.01-11.61L140.01-11.61Q139.87-8.98 139.87-7.45L139.87-7.45L139.87-7.45Q139.87-4.16 141.36-2.59L141.36-2.59L141.36-2.59Q142.86-1.02 145.12-1.02L145.12-1.02L145.12-1.02Q147.39-1.02 149.25-1.90L149.25-1.90L149.25-1.90Q151.11-2.77 152.20-3.98L152.20-3.98L152.20-3.98Q153.30-5.18 154.10-6.50L154.10-6.50L154.10-6.50Q155.56-8.91 155.56-9.56L155.56-9.56L156.88-8.98L156.88-8.98Q156.66-7.81 155.56-5.88L155.56-5.88L155.56-5.88Q154.47-3.94 153.15-2.70L153.15-2.70L153.15-2.70Q151.84-1.46 149.28-0.40L149.28-0.40L149.28-0.40Q146.73 0.66 143.59 0.66L143.59 0.66L143.59 0.66Q137.68 0.66 134.65-2.15L134.65-2.15L134.65-2.15Q131.62-4.96 131.62-9.85L131.62-9.85L131.62-9.85Q131.62-18.54 135.93-23.47L135.93-23.47L135.93-23.47Q140.23-28.40 147.46-28.40zM154.91-21.02L154.91-21.02Q154.91-23.43 153.48-25.00L153.48-25.00L153.48-25.00Q152.06-26.57 149.25-26.57L149.25-26.57L149.25-26.57Q146.44-26.57 143.77-23.21L143.77-23.21L143.77-23.21Q141.11-19.86 140.23-13.29L140.23-13.29L140.23-13.29Q154.91-13.36 154.91-21.02L154.91-21.02" fill="#290908" stroke="none" stroke-width="none" transform="translate(-99.13499450683594,19.266543055943085)" style="fill: rgb(194, 66, 41);"></path></g><g class="path" style="transform: scale(0.91); transform-origin: 75.265px 5.06654px; animation: 1s linear -0.188571s infinite normal forwards running breath-c9f1716b-b647-4e4e-8162-7e5625712c20;"><path d="M162.21-24.89L161.11-25.77L161.11-25.77Q163.30-28.40 166.62-28.40L166.62-28.40L166.62-28.40Q169.94-28.40 171.77-26.72L171.77-26.72L171.77-26.72Q173.59-25.04 173.59-21.97L173.59-21.97L173.59-21.54L173.59-21.54Q176.88-28.40 182.13-28.40L182.13-28.40L182.13-28.40Q187.76-28.40 187.76-22.56L187.76-22.56L187.76-22.56Q187.76-20.15 186.15-17.45L186.15-17.45L186.15-17.45Q184.54-14.75 182.94-12.30L182.94-12.30L182.94-12.30Q181.33-9.85 181.33-7.96L181.33-7.96L179.58-7.96L179.58-7.96Q179.58-10.66 182.72-15.26L182.72-15.26L182.72-15.26Q185.86-19.86 185.86-22.37L185.86-22.37L185.86-22.37Q185.86-24.89 184.87-25.81L184.87-25.81L184.87-25.81Q183.89-26.72 181.95-26.72L181.95-26.72L181.95-26.72Q180.02-26.72 178.16-25.04L178.16-25.04L178.16-25.04Q176.29-23.36 175.05-20.80L175.05-20.80L175.05-20.80Q173.08-17.01 172.43-14.60L172.43-14.60L172.43-14.53L169.80 0L161.04 0L165.86-26.94L165.86-26.94Q163.67-26.72 162.21-24.89L162.21-24.89" fill="#290908" stroke="none" stroke-width="none" transform="translate(-99.13499450683594,19.266543055943085)" style="fill: rgb(221, 132, 55);"></path></g><g class="path" style="transform: scale(0.91); transform-origin: 93.55px 16.1615px; animation: 1s linear -0.0942857s infinite normal forwards running breath-c9f1716b-b647-4e4e-8162-7e5625712c20;"><path d="M190.06-0.47L190.06-0.47L190.06-0.47Q189.00-1.53 189.00-3.07L189.00-3.07L189.00-3.07Q189.00-4.60 190.06-5.69L190.06-5.69L190.06-5.69Q191.11-6.79 192.65-6.79L192.65-6.79L192.65-6.79Q194.18-6.79 195.27-5.69L195.27-5.69L195.27-5.69Q196.37-4.60 196.37-3.07L196.37-3.07L196.37-3.07Q196.37-1.53 195.27-0.47L195.27-0.47L195.27-0.47Q194.18 0.58 192.65 0.58L192.65 0.58L192.65 0.58Q191.11 0.58 190.06-0.47" fill="#290908" stroke="none" stroke-width="none" transform="translate(-99.13499450683594,19.266543055943085)" style="fill: rgb(238, 180, 64);"></path></g><g class="path" style="transform: scale(0.91); transform-origin: 98.18px -7.59846px; animation: 1s linear 0s infinite normal forwards running breath-c9f1716b-b647-4e4e-8162-7e5625712c20;"><path d="M195.06-8.91L193.08-9.13L199.44-44.82L201.55-44.53L195.06-8.91" fill="#290908" stroke="none" stroke-width="none" transform="translate(-99.13499450683594,19.266543055943085)" style="fill: rgb(216, 206, 167);"></path></g></g>
</g>
</g>
<style id="breath-c9f1716b-b647-4e4e-8162-7e5625712c20" data-anikit="">@keyframes breath-c9f1716b-b647-4e4e-8162-7e5625712c20
{
  0% {
    animation-timing-function: cubic-bezier(0.9647,0.2413,-0.0705,0.7911);
    transform: scale(0.9099999999999999);
  }
  51% {
    animation-timing-function: cubic-bezier(0.9226,0.2631,-0.0308,0.7628);
    transform: scale(1.02994);
  }
  100% {
    transform: scale(0.9099999999999999);
  }
}</style></svg>