<?xml version="1.0" encoding="utf-8"?>
<svg xmlns="http://www.w3.org/2000/svg" style="margin: auto; background: none; display: block; shape-rendering: auto;" width="280" height="250" preserveAspectRatio="xMidYMid">
<style type="text/css">
  text {
    text-anchor: middle; font-size: 73px; opacity: 0;
  }
</style>
<g style="transform-origin:140px 125px;transform:scale(1)">
<g transform="translate(140,125)">
  <g transform="translate(0,0)"><g class="path" style="transform: scale(0.91); transform-origin: -73.805px -4.82049px; animation: 1s linear -0.586667s infinite normal forwards running breath-c9f1716b-b647-4e4e-8162-7e5625712c20;"><path d="M45.84-43.43L45.84-43.43L45.84-43.43Q52.63-43.43 57.60-46.21L57.60-46.21L58.47-44.82L58.47-44.82Q53.87-42.34 48.62-41.97L48.62-41.97L48.62-41.97Q44.60-37.16 41.76-29.20L41.76-29.20L41.76-29.20Q38.91-21.24 38.91-13.43L38.91-13.43L38.91-13.43Q38.91-5.62 41.76-2.48L41.76-2.48L41.76-2.48Q44.60 0.66 49.42 0.66L49.42 0.66L49.42 0.66Q56.28 0.66 62.12-6.50L62.12-6.50L62.12-6.50Q66.43-12.04 69.09-19.05L69.09-19.05L69.09-19.05Q71.76-26.06 72.42-31.86L72.42-31.86L72.42-31.86Q73.07-37.67 73.07-43.25L73.07-43.25L73.07-43.25Q73.07-48.84 71.91-53.58L71.91-53.58L73.44-53.95L73.44-53.95Q74.68-49.20 74.68-43.43L74.68-43.43L74.68-43.43Q74.68-37.67 73.99-31.68L73.99-31.68L73.99-31.68Q73.29-25.70 70.55-18.47L70.55-18.47L70.55-18.47Q67.82-11.24 63.36-5.55L63.36-5.55L63.36-5.55Q54.31 6.13 43.36 6.13L43.36 6.13L43.36 6.13Q37.08 6.13 34.09 2.01L34.09 2.01L34.09 2.01Q31.10-2.12 31.10-7.88L31.10-7.88L31.10-7.88Q31.10-13.65 32.81-19.56L32.81-19.56L32.81-19.56Q34.53-25.48 37.23-29.93L37.23-29.93L37.23-29.93Q41.83-37.67 46.06-41.90L46.06-41.90L46.06-41.90Q44.02-41.90 39.64-42.34L39.64-42.34L31.10-42.85L31.10-42.85Q20.88-42.85 15.11-37.78L15.11-37.78L15.11-37.78Q9.34-32.70 9.34-23.65L9.34-23.65L9.34-23.65Q9.34-20.22 10.51-17.48L10.51-17.48L10.51-17.48Q11.68-14.75 13.18-13.29L13.18-13.29L13.18-13.29Q14.67-11.83 16.57-10.80L16.57-10.80L16.57-10.80Q18.91-9.49 21.10-8.98L21.10-8.98L20.73-7.45L20.73-7.45Q19.27-7.45 16.68-8.91L16.68-8.91L16.68-8.91Q14.09-10.37 12.30-12.01L12.30-12.01L12.30-12.01Q10.51-13.65 9.16-16.72L9.16-16.72L9.16-16.72Q7.81-19.78 7.81-23.65L7.81-23.65L7.81-23.65Q7.81-33.21 14.09-38.84L14.09-38.84L14.09-38.84Q20.37-44.46 31.10-44.46L31.10-44.46L31.10-44.46Q33.58-44.46 39.86-43.95L39.86-43.95L39.86-43.95Q42.85-43.43 45.84-43.43" fill="#d7689d" stroke="none" stroke-width="none" transform="translate(-115.05001831054688,19.089510260687945)" style="fill: rgb(215, 104, 157);"></path></g><g class="path" style="transform: scale(0.91); transform-origin: -30.115px 5.21951px; animation: 1s linear -0.513333s infinite normal forwards running breath-c9f1716b-b647-4e4e-8162-7e5625712c20;"><path d="M91.03-1.97L91.03-1.97Q88.84 0.66 85.56 0.66L85.56 0.66L85.56 0.66Q82.27 0.66 80.41-1.02L80.41-1.02L80.41-1.02Q78.55-2.70 78.55-5.40L78.55-5.40L78.55-5.40Q78.55-6.35 79.72-13.36L79.72-13.36L82.13-26.43L79.06-26.43L79.20-27.74L82.34-27.74L82.34-27.74Q87.75-27.74 90.30-28.18L90.30-28.18L91.32-28.40L86.29-0.80L86.29-0.80Q88.48-1.02 89.94-2.85L89.94-2.85L91.03-1.97" fill="#d7689d" stroke="none" stroke-width="none" transform="translate(-115.05001831054688,19.089510260687945)" style="fill: rgb(243, 211, 55);"></path></g><g class="path" style="transform: scale(0.91); transform-origin: -26.685px -20.0755px; animation: 1s linear -0.44s infinite normal forwards running breath-c9f1716b-b647-4e4e-8162-7e5625712c20;"><path d="M84.61-35.41L84.61-35.41L84.61-35.41Q83.07-36.94 83.07-39.13L83.07-39.13L83.07-39.13Q83.07-41.32 84.61-42.89L84.61-42.89L84.61-42.89Q86.14-44.46 88.33-44.46L88.33-44.46L88.33-44.46Q90.52-44.46 92.09-42.89L92.09-42.89L92.09-42.89Q93.66-41.32 93.66-39.13L93.66-39.13L93.66-39.13Q93.66-36.94 92.09-35.41L92.09-35.41L92.09-35.41Q90.52-33.87 88.33-33.87L88.33-33.87L88.33-33.87Q86.14-33.87 84.61-35.41" fill="#d7689d" stroke="none" stroke-width="none" transform="translate(-115.05001831054688,19.089510260687945)" style="fill: rgb(160, 196, 67);"></path></g><g class="path" style="transform: scale(0.91); transform-origin: -3.25002px 5.21951px; animation: 1s linear -0.366667s infinite normal forwards running breath-c9f1716b-b647-4e4e-8162-7e5625712c20;"><path d="M123.44-0.80L123.44-0.80L123.44-0.80Q125.19-0.80 127.09-2.85L127.09-2.85L128.19-1.97L128.19-1.97Q127.68-0.95 125.92-0.15L125.92-0.15L125.92-0.15Q124.17 0.66 122.06 0.66L122.06 0.66L122.06 0.66Q115.41 0.66 115.41-5.33L115.41-5.33L115.41-5.33Q115.41-7.88 116.73-14.45L116.73-14.45L116.73-14.45Q118.04-21.02 118.04-23.07L118.04-23.07L118.04-23.07Q118.04-26.21 115.05-26.21L115.05-26.21L115.05-26.21Q112.64-26.21 110.41-23.07L110.41-23.07L110.41-23.07Q108.19-19.93 106.73-14.45L106.73-14.45L104.24-0.80L104.24-0.80Q106.51-1.02 107.97-2.85L107.97-2.85L109.06-1.97L109.06-1.97Q106.87 0.66 103.59 0.66L103.59 0.66L103.59 0.66Q100.30 0.66 98.44-1.02L98.44-1.02L98.44-1.02Q96.58-2.70 96.58-5.40L96.58-5.40L96.58-5.40Q96.58-6.42 97.75-13.43L97.75-13.43L100.16-26.94L100.16-26.94Q97.97-26.72 96.51-24.89L96.51-24.89L95.41-25.77L95.41-25.77Q97.60-28.40 100.92-28.40L100.92-28.40L100.92-28.40Q104.24-28.40 106.07-26.72L106.07-26.72L106.07-26.72Q107.89-25.04 107.89-21.97L107.89-21.97L107.89-21.54L107.89-21.54Q110.89-28.40 117.24-28.40L117.24-28.40L117.24-28.40Q121.54-28.40 123.95-25.95L123.95-25.95L123.95-25.95Q126.36-23.51 126.36-19.20L126.36-19.20L126.36-19.20Q126.36-16.94 124.98-10.48L124.98-10.48L124.98-10.48Q123.59-4.01 123.44-0.80" fill="#d7689d" stroke="none" stroke-width="none" transform="translate(-115.05001831054688,19.089510260687945)" style="fill: rgb(102, 181, 174);"></path></g><g class="path" style="transform: scale(0.91); transform-origin: 33.175px 5.21951px; animation: 1s linear -0.293333s infinite normal forwards running breath-c9f1716b-b647-4e4e-8162-7e5625712c20;"><path d="M159.87-0.80L159.87-0.80L159.87-0.80Q161.62-0.80 163.52-2.85L163.52-2.85L164.61-1.97L164.61-1.97Q164.10-0.95 162.35-0.15L162.35-0.15L162.35-0.15Q160.60 0.66 158.48 0.66L158.48 0.66L158.48 0.66Q151.84 0.66 151.84-5.33L151.84-5.33L151.84-5.33Q151.84-7.88 153.15-14.45L153.15-14.45L153.15-14.45Q154.47-21.02 154.47-23.07L154.47-23.07L154.47-23.07Q154.47-26.21 151.47-26.21L151.47-26.21L151.47-26.21Q149.07-26.21 146.84-23.07L146.84-23.07L146.84-23.07Q144.61-19.93 143.15-14.45L143.15-14.45L140.67-0.80L140.67-0.80Q142.93-1.02 144.39-2.85L144.39-2.85L145.49-1.97L145.49-1.97Q143.30 0.66 140.01 0.66L140.01 0.66L140.01 0.66Q136.73 0.66 134.87-1.02L134.87-1.02L134.87-1.02Q133.01-2.70 133.01-5.40L133.01-5.40L133.01-5.40Q133.01-6.42 134.17-13.43L134.17-13.43L136.58-26.94L136.58-26.94Q134.39-26.72 132.93-24.89L132.93-24.89L131.84-25.77L131.84-25.77Q134.03-28.40 137.35-28.40L137.35-28.40L137.35-28.40Q140.67-28.40 142.50-26.72L142.50-26.72L142.50-26.72Q144.32-25.04 144.32-21.97L144.32-21.97L144.32-21.54L144.32-21.54Q147.31-28.40 153.66-28.40L153.66-28.40L153.66-28.40Q157.97-28.40 160.38-25.95L160.38-25.95L160.38-25.95Q162.79-23.51 162.79-19.20L162.79-19.20L162.79-19.20Q162.79-16.94 161.40-10.48L161.40-10.48L161.40-10.48Q160.02-4.01 159.87-0.80" fill="#d7689d" stroke="none" stroke-width="none" transform="translate(-115.05001831054688,19.089510260687945)" style="fill: rgb(93, 164, 220);"></path></g><g class="path" style="transform: scale(0.91); transform-origin: 65.55px 5.21951px; animation: 1s linear -0.22s infinite normal forwards running breath-c9f1716b-b647-4e4e-8162-7e5625712c20;"><path d="M183.81-28.40L183.81-28.40L183.81-28.40Q193.08-28.40 193.08-21.02L193.08-21.02L193.08-21.02Q193.08-16.43 188.74-14.05L188.74-14.05L188.74-14.05Q184.40-11.68 176.37-11.61L176.37-11.61L176.37-11.61Q176.22-8.98 176.22-7.45L176.22-7.45L176.22-7.45Q176.22-4.16 177.72-2.59L177.72-2.59L177.72-2.59Q179.21-1.02 181.48-1.02L181.48-1.02L181.48-1.02Q183.74-1.02 185.60-1.90L185.60-1.90L185.60-1.90Q187.46-2.77 188.56-3.98L188.56-3.98L188.56-3.98Q189.65-5.18 190.46-6.50L190.46-6.50L190.46-6.50Q191.92-8.91 191.92-9.56L191.92-9.56L193.23-8.98L193.23-8.98Q193.01-7.81 191.92-5.88L191.92-5.88L191.92-5.88Q190.82-3.94 189.51-2.70L189.51-2.70L189.51-2.70Q188.19-1.46 185.64-0.40L185.64-0.40L185.64-0.40Q183.08 0.66 179.94 0.66L179.94 0.66L179.94 0.66Q174.03 0.66 171.00-2.15L171.00-2.15L171.00-2.15Q167.97-4.96 167.97-9.85L167.97-9.85L167.97-9.85Q167.97-18.54 172.28-23.47L172.28-23.47L172.28-23.47Q176.59-28.40 183.81-28.40zM191.26-21.02L191.26-21.02Q191.26-23.43 189.84-25.00L189.84-25.00L189.84-25.00Q188.41-26.57 185.60-26.57L185.60-26.57L185.60-26.57Q182.79-26.57 180.13-23.21L180.13-23.21L180.13-23.21Q177.46-19.86 176.59-13.29L176.59-13.29L176.59-13.29Q191.26-13.36 191.26-21.02L191.26-21.02" fill="#d7689d" stroke="none" stroke-width="none" transform="translate(-115.05001831054688,19.089510260687945)" style="fill: rgb(64, 118, 158);"></path></g><g class="path" style="transform: scale(0.91); transform-origin: 95.7px 4.88951px; animation: 1s linear -0.146667s infinite normal forwards running breath-c9f1716b-b647-4e4e-8162-7e5625712c20;"><path d="M198.56-24.89L197.46-25.77L197.46-25.77Q199.65-28.40 202.98-28.40L202.98-28.40L202.98-28.40Q206.30-28.40 208.12-26.72L208.12-26.72L208.12-26.72Q209.95-25.04 209.95-21.97L209.95-21.97L209.95-21.54L209.95-21.54Q213.23-28.40 218.49-28.40L218.49-28.40L218.49-28.40Q224.11-28.40 224.11-22.56L224.11-22.56L224.11-22.56Q224.11-20.15 222.50-17.45L222.50-17.45L222.50-17.45Q220.90-14.75 219.29-12.30L219.29-12.30L219.29-12.30Q217.69-9.85 217.69-7.96L217.69-7.96L215.93-7.96L215.93-7.96Q215.93-10.66 219.07-15.26L219.07-15.26L219.07-15.26Q222.21-19.86 222.21-22.37L222.21-22.37L222.21-22.37Q222.21-24.89 221.23-25.81L221.23-25.81L221.23-25.81Q220.24-26.72 218.31-26.72L218.31-26.72L218.31-26.72Q216.37-26.72 214.51-25.04L214.51-25.04L214.51-25.04Q212.65-23.36 211.41-20.80L211.41-20.80L211.41-20.80Q209.44-17.01 208.78-14.60L208.78-14.60L208.78-14.53L206.15 0L197.39 0L202.21-26.94L202.21-26.94Q200.02-26.72 198.56-24.89L198.56-24.89" fill="#d7689d" stroke="none" stroke-width="none" transform="translate(-115.05001831054688,19.089510260687945)" style="fill: rgb(215, 104, 157);"></path></g><g class="path" style="transform: scale(0.91); transform-origin: 113.985px 15.9845px; animation: 1s linear -0.0733333s infinite normal forwards running breath-c9f1716b-b647-4e4e-8162-7e5625712c20;"><path d="M226.41-0.47L226.41-0.47L226.41-0.47Q225.35-1.53 225.35-3.07L225.35-3.07L225.35-3.07Q225.35-4.60 226.41-5.69L226.41-5.69L226.41-5.69Q227.47-6.79 229.00-6.79L229.00-6.79L229.00-6.79Q230.53-6.79 231.63-5.69L231.63-5.69L231.63-5.69Q232.72-4.60 232.72-3.07L232.72-3.07L232.72-3.07Q232.72-1.53 231.63-0.47L231.63-0.47L231.63-0.47Q230.53 0.58 229.00 0.58L229.00 0.58L229.00 0.58Q227.47 0.58 226.41-0.47" fill="#d7689d" stroke="none" stroke-width="none" transform="translate(-115.05001831054688,19.089510260687945)" style="fill: rgb(243, 211, 55);"></path></g><g class="path" style="transform: scale(0.91); transform-origin: 118.625px -7.77549px; animation: 1s linear 0s infinite normal forwards running breath-c9f1716b-b647-4e4e-8162-7e5625712c20;"><path d="M231.41-8.91L229.44-9.13L235.79-44.82L237.91-44.53L231.41-8.91" fill="#d7689d" stroke="none" stroke-width="none" transform="translate(-115.05001831054688,19.089510260687945)" style="fill: rgb(160, 196, 67);"></path></g></g>
</g>
</g>
<style id="breath-c9f1716b-b647-4e4e-8162-7e5625712c20" data-anikit="">@keyframes breath-c9f1716b-b647-4e4e-8162-7e5625712c20
{
  0% {
    animation-timing-function: cubic-bezier(0.9647,0.2413,-0.0705,0.7911);
    transform: scale(0.9099999999999999);
  }
  51% {
    animation-timing-function: cubic-bezier(0.9226,0.2631,-0.0308,0.7628);
    transform: scale(1.02994);
  }
  100% {
    transform: scale(0.9099999999999999);
  }
}</style></svg>